# xmcd
#
# Track frame offsets: 
#        150
#        16222
#        38383
#        54126
#        70610
#        88049
#        100610
#        119820
#        137563
#        147285
#        161764
#
# Disc length: 2371 seconds
#
# Revision: 0
# Processed by: cddbd v1.5.2PL0 Copyright (c) Steve Scherf et al.
# Submitted via: ExactAudioCopy v0.99pb5
#
DISCID=8609410b
DTITLE=Anthony Gomes - Up 2 Zero
DYEAR=2012
DGENRE=Blues
TTITLE0=Back To The Start
TTITLE1=One Last Time
TTITLE2=Love Sweet Love
TTITLE3=Fly Away
TTITLE4=Darkest Before The Dawn
TTITLE5=Room 414
TTITLE6=Voodoo Moon
TTITLE7=Anywhere You Run
TTITLE8=Last Bluesman Gone
TTITLE9=Up 2 Zero
TTITLE10=N'Abandonne Pas
EXTD=
EXTT0=
EXTT1=
EXTT2=
EXTT3=
EXTT4=
EXTT5=
EXTT6=
EXTT7=
EXTT8=
EXTT9=
EXTT10=
PLAYORDER=
